<mxfile host="app.diagrams.net" modified="2024-02-28T15:23:24.820Z" agent="Mozilla/5.0 (Windows NT 10.0; Win64; x64) AppleWebKit/537.36 (KHTML, like Gecko) Chrome/122.0.0.0 Safari/537.36 Edg/122.0.0.0" etag="nk7oiiL6ZLhrMhZvmFJd" version="23.1.7" type="github">
  <diagram id="R2lEEEUBdFMjLlhIrx00" name="Page-1">
    <mxGraphModel dx="1457" dy="345" grid="1" gridSize="10" guides="1" tooltips="1" connect="1" arrows="1" fold="1" page="1" pageScale="1" pageWidth="850" pageHeight="1100" math="0" shadow="0" extFonts="Permanent Marker^https://fonts.googleapis.com/css?family=Permanent+Marker">
      <root>
        <mxCell id="0" />
        <mxCell id="1" parent="0" />
        <mxCell id="n2hWyiWzyWa_PL9sFiAs-1" value="realiza" style="rhombus;whiteSpace=wrap;html=1;" vertex="1" parent="1">
          <mxGeometry x="188" y="640" width="90" height="60" as="geometry" />
        </mxCell>
        <mxCell id="n2hWyiWzyWa_PL9sFiAs-2" value="tiene" style="rhombus;whiteSpace=wrap;html=1;" vertex="1" parent="1">
          <mxGeometry x="703" y="640" width="90" height="60" as="geometry" />
        </mxCell>
        <mxCell id="n2hWyiWzyWa_PL9sFiAs-3" value="tiene" style="rhombus;whiteSpace=wrap;html=1;" vertex="1" parent="1">
          <mxGeometry x="472.5" y="880.5" width="90" height="60" as="geometry" />
        </mxCell>
        <mxCell id="n2hWyiWzyWa_PL9sFiAs-5" style="edgeStyle=orthogonalEdgeStyle;rounded=0;orthogonalLoop=1;jettySize=auto;html=1;entryX=0.542;entryY=0.5;entryDx=0;entryDy=0;entryPerimeter=0;exitX=1;exitY=0.5;exitDx=0;exitDy=0;" edge="1" parent="1" source="n2hWyiWzyWa_PL9sFiAs-1" target="n2hWyiWzyWa_PL9sFiAs-21">
          <mxGeometry relative="1" as="geometry">
            <mxPoint x="266.75" y="670" as="sourcePoint" />
          </mxGeometry>
        </mxCell>
        <mxCell id="n2hWyiWzyWa_PL9sFiAs-6" style="edgeStyle=orthogonalEdgeStyle;rounded=0;orthogonalLoop=1;jettySize=auto;html=1;entryX=0.5;entryY=0.5;entryDx=0;entryDy=0;entryPerimeter=0;" edge="1" parent="1" source="n2hWyiWzyWa_PL9sFiAs-1" target="n2hWyiWzyWa_PL9sFiAs-22">
          <mxGeometry relative="1" as="geometry" />
        </mxCell>
        <mxCell id="n2hWyiWzyWa_PL9sFiAs-7" style="edgeStyle=orthogonalEdgeStyle;rounded=0;orthogonalLoop=1;jettySize=auto;html=1;entryX=0.625;entryY=0.5;entryDx=0;entryDy=0;entryPerimeter=0;" edge="1" parent="1" source="n2hWyiWzyWa_PL9sFiAs-2" target="n2hWyiWzyWa_PL9sFiAs-21">
          <mxGeometry relative="1" as="geometry" />
        </mxCell>
        <mxCell id="n2hWyiWzyWa_PL9sFiAs-9" style="edgeStyle=orthogonalEdgeStyle;rounded=0;orthogonalLoop=1;jettySize=auto;html=1;entryX=0.5;entryY=0.667;entryDx=0;entryDy=0;entryPerimeter=0;" edge="1" parent="1" source="n2hWyiWzyWa_PL9sFiAs-2" target="n2hWyiWzyWa_PL9sFiAs-20">
          <mxGeometry relative="1" as="geometry" />
        </mxCell>
        <mxCell id="n2hWyiWzyWa_PL9sFiAs-10" style="edgeStyle=orthogonalEdgeStyle;rounded=0;orthogonalLoop=1;jettySize=auto;html=1;entryX=0.292;entryY=0.5;entryDx=0;entryDy=0;entryPerimeter=0;exitX=1;exitY=0.5;exitDx=0;exitDy=0;" edge="1" parent="1" source="n2hWyiWzyWa_PL9sFiAs-3" target="n2hWyiWzyWa_PL9sFiAs-20">
          <mxGeometry relative="1" as="geometry">
            <mxPoint x="642.5" y="910.5" as="sourcePoint" />
          </mxGeometry>
        </mxCell>
        <mxCell id="n2hWyiWzyWa_PL9sFiAs-11" style="edgeStyle=orthogonalEdgeStyle;rounded=0;orthogonalLoop=1;jettySize=auto;html=1;entryX=0.625;entryY=0.5;entryDx=0;entryDy=0;entryPerimeter=0;" edge="1" parent="1" source="n2hWyiWzyWa_PL9sFiAs-3" target="n2hWyiWzyWa_PL9sFiAs-27">
          <mxGeometry relative="1" as="geometry" />
        </mxCell>
        <mxCell id="n2hWyiWzyWa_PL9sFiAs-20" value="tb_libros" style="rounded=0;whiteSpace=wrap;html=1;" vertex="1" parent="1">
          <mxGeometry x="687.5" y="880.5" width="120" height="60" as="geometry" />
        </mxCell>
        <mxCell id="n2hWyiWzyWa_PL9sFiAs-21" value="tb_prestamos" style="rounded=0;whiteSpace=wrap;html=1;" vertex="1" parent="1">
          <mxGeometry x="374.25" y="640" width="120" height="60" as="geometry" />
        </mxCell>
        <mxCell id="n2hWyiWzyWa_PL9sFiAs-22" value="tb_clientes" style="rounded=0;whiteSpace=wrap;html=1;" vertex="1" parent="1">
          <mxGeometry x="-30" y="640" width="120" height="60" as="geometry" />
        </mxCell>
        <mxCell id="n2hWyiWzyWa_PL9sFiAs-27" value="tb_generos_libros" style="rounded=0;whiteSpace=wrap;html=1;" vertex="1" parent="1">
          <mxGeometry x="235" y="880.5" width="120" height="60" as="geometry" />
        </mxCell>
        <mxCell id="n2hWyiWzyWa_PL9sFiAs-46" style="edgeStyle=orthogonalEdgeStyle;rounded=0;orthogonalLoop=1;jettySize=auto;html=1;entryX=0.444;entryY=0.4;entryDx=0;entryDy=0;entryPerimeter=0;exitX=0;exitY=0.75;exitDx=0;exitDy=0;" edge="1" parent="1" target="n2hWyiWzyWa_PL9sFiAs-47" source="n2hWyiWzyWa_PL9sFiAs-22">
          <mxGeometry relative="1" as="geometry">
            <Array as="points">
              <mxPoint x="-30" y="671" />
              <mxPoint x="-50" y="671" />
              <mxPoint x="-50" y="572" />
            </Array>
            <mxPoint x="-29.999999999999545" y="802" as="sourcePoint" />
          </mxGeometry>
        </mxCell>
        <mxCell id="n2hWyiWzyWa_PL9sFiAs-47" value="&lt;u&gt;PK id_cliente&lt;span style=&quot;white-space: pre;&quot;&gt;&#x9;&lt;/span&gt;&lt;/u&gt;" style="ellipse;whiteSpace=wrap;html=1;" vertex="1" parent="1">
          <mxGeometry x="-160" y="552" width="90" height="50" as="geometry" />
        </mxCell>
        <mxCell id="n2hWyiWzyWa_PL9sFiAs-55" style="edgeStyle=orthogonalEdgeStyle;rounded=0;orthogonalLoop=1;jettySize=auto;html=1;entryX=0.533;entryY=0.5;entryDx=0;entryDy=0;entryPerimeter=0;" edge="1" parent="1" source="n2hWyiWzyWa_PL9sFiAs-2" target="n2hWyiWzyWa_PL9sFiAs-104">
          <mxGeometry relative="1" as="geometry">
            <Array as="points">
              <mxPoint x="901" y="670" />
            </Array>
          </mxGeometry>
        </mxCell>
        <mxCell id="n2hWyiWzyWa_PL9sFiAs-56" style="edgeStyle=orthogonalEdgeStyle;rounded=0;orthogonalLoop=1;jettySize=auto;html=1;entryX=0.422;entryY=0.625;entryDx=0;entryDy=0;entryPerimeter=0;" edge="1" parent="1" source="n2hWyiWzyWa_PL9sFiAs-2" target="n2hWyiWzyWa_PL9sFiAs-102">
          <mxGeometry relative="1" as="geometry" />
        </mxCell>
        <mxCell id="n2hWyiWzyWa_PL9sFiAs-57" style="edgeStyle=orthogonalEdgeStyle;rounded=0;orthogonalLoop=1;jettySize=auto;html=1;entryX=0.483;entryY=0.375;entryDx=0;entryDy=0;entryPerimeter=0;" edge="1" parent="1" source="n2hWyiWzyWa_PL9sFiAs-2" target="n2hWyiWzyWa_PL9sFiAs-103">
          <mxGeometry relative="1" as="geometry" />
        </mxCell>
        <mxCell id="n2hWyiWzyWa_PL9sFiAs-58" style="edgeStyle=orthogonalEdgeStyle;rounded=0;orthogonalLoop=1;jettySize=auto;html=1;entryX=0.55;entryY=0.75;entryDx=0;entryDy=0;entryPerimeter=0;" edge="1" parent="1" source="n2hWyiWzyWa_PL9sFiAs-21" target="n2hWyiWzyWa_PL9sFiAs-98">
          <mxGeometry relative="1" as="geometry" />
        </mxCell>
        <mxCell id="n2hWyiWzyWa_PL9sFiAs-59" style="edgeStyle=orthogonalEdgeStyle;rounded=0;orthogonalLoop=1;jettySize=auto;html=1;entryX=0.517;entryY=0.75;entryDx=0;entryDy=0;entryPerimeter=0;" edge="1" parent="1" source="n2hWyiWzyWa_PL9sFiAs-21" target="n2hWyiWzyWa_PL9sFiAs-99">
          <mxGeometry relative="1" as="geometry" />
        </mxCell>
        <mxCell id="n2hWyiWzyWa_PL9sFiAs-60" style="edgeStyle=orthogonalEdgeStyle;rounded=0;orthogonalLoop=1;jettySize=auto;html=1;entryX=0.583;entryY=0.5;entryDx=0;entryDy=0;entryPerimeter=0;" edge="1" parent="1" source="n2hWyiWzyWa_PL9sFiAs-21" target="n2hWyiWzyWa_PL9sFiAs-101">
          <mxGeometry relative="1" as="geometry" />
        </mxCell>
        <mxCell id="n2hWyiWzyWa_PL9sFiAs-61" style="edgeStyle=orthogonalEdgeStyle;rounded=0;orthogonalLoop=1;jettySize=auto;html=1;entryX=0.512;entryY=0.6;entryDx=0;entryDy=0;entryPerimeter=0;" edge="1" parent="1" source="n2hWyiWzyWa_PL9sFiAs-21" target="n2hWyiWzyWa_PL9sFiAs-97">
          <mxGeometry relative="1" as="geometry" />
        </mxCell>
        <mxCell id="n2hWyiWzyWa_PL9sFiAs-62" style="edgeStyle=orthogonalEdgeStyle;rounded=0;orthogonalLoop=1;jettySize=auto;html=1;entryX=0.467;entryY=0.375;entryDx=0;entryDy=0;entryPerimeter=0;" edge="1" parent="1" source="n2hWyiWzyWa_PL9sFiAs-21" target="n2hWyiWzyWa_PL9sFiAs-100">
          <mxGeometry relative="1" as="geometry" />
        </mxCell>
        <mxCell id="n2hWyiWzyWa_PL9sFiAs-63" style="edgeStyle=orthogonalEdgeStyle;rounded=0;orthogonalLoop=1;jettySize=auto;html=1;entryX=0.533;entryY=0.413;entryDx=0;entryDy=0;entryPerimeter=0;" edge="1" parent="1" source="n2hWyiWzyWa_PL9sFiAs-20" target="n2hWyiWzyWa_PL9sFiAs-116">
          <mxGeometry relative="1" as="geometry" />
        </mxCell>
        <mxCell id="n2hWyiWzyWa_PL9sFiAs-64" style="edgeStyle=orthogonalEdgeStyle;rounded=0;orthogonalLoop=1;jettySize=auto;html=1;entryX=0.8;entryY=0.488;entryDx=0;entryDy=0;entryPerimeter=0;" edge="1" parent="1" source="n2hWyiWzyWa_PL9sFiAs-20" target="n2hWyiWzyWa_PL9sFiAs-112">
          <mxGeometry relative="1" as="geometry">
            <Array as="points">
              <mxPoint x="832.5" y="910.5" />
              <mxPoint x="832.5" y="863.5" />
            </Array>
          </mxGeometry>
        </mxCell>
        <mxCell id="n2hWyiWzyWa_PL9sFiAs-65" style="edgeStyle=orthogonalEdgeStyle;rounded=0;orthogonalLoop=1;jettySize=auto;html=1;entryX=0.444;entryY=0.488;entryDx=0;entryDy=0;entryPerimeter=0;" edge="1" parent="1" source="n2hWyiWzyWa_PL9sFiAs-20" target="n2hWyiWzyWa_PL9sFiAs-115">
          <mxGeometry relative="1" as="geometry">
            <Array as="points">
              <mxPoint x="832.5" y="910.5" />
              <mxPoint x="832.5" y="813.5" />
            </Array>
          </mxGeometry>
        </mxCell>
        <mxCell id="n2hWyiWzyWa_PL9sFiAs-66" style="edgeStyle=orthogonalEdgeStyle;rounded=0;orthogonalLoop=1;jettySize=auto;html=1;entryX=0.533;entryY=0.813;entryDx=0;entryDy=0;entryPerimeter=0;" edge="1" parent="1" source="n2hWyiWzyWa_PL9sFiAs-20" target="n2hWyiWzyWa_PL9sFiAs-113">
          <mxGeometry relative="1" as="geometry">
            <Array as="points">
              <mxPoint x="832.5" y="910.5" />
              <mxPoint x="832.5" y="973.5" />
            </Array>
          </mxGeometry>
        </mxCell>
        <mxCell id="n2hWyiWzyWa_PL9sFiAs-67" style="edgeStyle=orthogonalEdgeStyle;rounded=0;orthogonalLoop=1;jettySize=auto;html=1;entryX=0.4;entryY=0.663;entryDx=0;entryDy=0;entryPerimeter=0;" edge="1" parent="1" source="n2hWyiWzyWa_PL9sFiAs-20" target="n2hWyiWzyWa_PL9sFiAs-114">
          <mxGeometry relative="1" as="geometry">
            <Array as="points">
              <mxPoint x="832.5" y="910.5" />
              <mxPoint x="832.5" y="1013.5" />
            </Array>
          </mxGeometry>
        </mxCell>
        <mxCell id="n2hWyiWzyWa_PL9sFiAs-74" style="edgeStyle=orthogonalEdgeStyle;rounded=0;orthogonalLoop=1;jettySize=auto;html=1;entryX=0.5;entryY=0.413;entryDx=0;entryDy=0;entryPerimeter=0;" edge="1" parent="1" source="n2hWyiWzyWa_PL9sFiAs-27" target="n2hWyiWzyWa_PL9sFiAs-122">
          <mxGeometry relative="1" as="geometry" />
        </mxCell>
        <mxCell id="n2hWyiWzyWa_PL9sFiAs-75" style="edgeStyle=orthogonalEdgeStyle;rounded=0;orthogonalLoop=1;jettySize=auto;html=1;entryX=0.556;entryY=0.75;entryDx=0;entryDy=0;entryPerimeter=0;" edge="1" parent="1" source="n2hWyiWzyWa_PL9sFiAs-27" target="n2hWyiWzyWa_PL9sFiAs-125">
          <mxGeometry relative="1" as="geometry">
            <Array as="points">
              <mxPoint x="240" y="993.5" />
            </Array>
          </mxGeometry>
        </mxCell>
        <mxCell id="n2hWyiWzyWa_PL9sFiAs-97" value="fecha_devolucion" style="ellipse;whiteSpace=wrap;html=1;" vertex="1" parent="1">
          <mxGeometry x="438.25" y="576" width="111.75" height="40" as="geometry" />
        </mxCell>
        <mxCell id="n2hWyiWzyWa_PL9sFiAs-98" value="&lt;u&gt;PK id_prestamo&lt;/u&gt;" style="ellipse;whiteSpace=wrap;html=1;" vertex="1" parent="1">
          <mxGeometry x="478" y="740" width="105" height="40" as="geometry" />
        </mxCell>
        <mxCell id="n2hWyiWzyWa_PL9sFiAs-99" value="FK_id_cliente" style="ellipse;whiteSpace=wrap;html=1;" vertex="1" parent="1">
          <mxGeometry x="395.5" y="740" width="75" height="40" as="geometry" />
        </mxCell>
        <mxCell id="n2hWyiWzyWa_PL9sFiAs-100" value="fecha_inicio" style="ellipse;whiteSpace=wrap;html=1;" vertex="1" parent="1">
          <mxGeometry x="354.25" y="575" width="75" height="40" as="geometry" />
        </mxCell>
        <mxCell id="n2hWyiWzyWa_PL9sFiAs-101" value="estado" style="ellipse;whiteSpace=wrap;html=1;" vertex="1" parent="1">
          <mxGeometry x="315.5" y="740" width="75" height="40" as="geometry" />
        </mxCell>
        <mxCell id="n2hWyiWzyWa_PL9sFiAs-102" value="FK_id_libro" style="ellipse;whiteSpace=wrap;html=1;" vertex="1" parent="1">
          <mxGeometry x="749.25" y="575" width="90.75" height="40" as="geometry" />
        </mxCell>
        <mxCell id="n2hWyiWzyWa_PL9sFiAs-103" value="FK_id_prestamo" style="ellipse;whiteSpace=wrap;html=1;" vertex="1" parent="1">
          <mxGeometry x="640" y="575" width="101.75" height="40" as="geometry" />
        </mxCell>
        <mxCell id="n2hWyiWzyWa_PL9sFiAs-104" value="&lt;u&gt;PK_id_detalle prestamo&lt;/u&gt;" style="ellipse;whiteSpace=wrap;html=1;" vertex="1" parent="1">
          <mxGeometry x="850" y="632" width="95" height="40" as="geometry" />
        </mxCell>
        <mxCell id="n2hWyiWzyWa_PL9sFiAs-112" value="FK_id_genero_libro" style="ellipse;whiteSpace=wrap;html=1;" vertex="1" parent="1">
          <mxGeometry x="862.5" y="844" width="137.5" height="40" as="geometry" />
        </mxCell>
        <mxCell id="n2hWyiWzyWa_PL9sFiAs-113" value="anio_publicacion" style="ellipse;whiteSpace=wrap;html=1;" vertex="1" parent="1">
          <mxGeometry x="862.5" y="941" width="127.5" height="40" as="geometry" />
        </mxCell>
        <mxCell id="n2hWyiWzyWa_PL9sFiAs-114" value="estado" style="ellipse;whiteSpace=wrap;html=1;" vertex="1" parent="1">
          <mxGeometry x="862.5" y="987" width="75" height="40" as="geometry" />
        </mxCell>
        <mxCell id="n2hWyiWzyWa_PL9sFiAs-115" value="&lt;u&gt;PK_id_libro&lt;/u&gt;" style="ellipse;whiteSpace=wrap;html=1;" vertex="1" parent="1">
          <mxGeometry x="862.5" y="794" width="120" height="40" as="geometry" />
        </mxCell>
        <mxCell id="n2hWyiWzyWa_PL9sFiAs-116" value="titulo_libro" style="ellipse;whiteSpace=wrap;html=1;" vertex="1" parent="1">
          <mxGeometry x="862.5" y="894" width="75" height="40" as="geometry" />
        </mxCell>
        <mxCell id="n2hWyiWzyWa_PL9sFiAs-122" value="&lt;u&gt;PK id_genero_libro&lt;/u&gt;" style="ellipse;whiteSpace=wrap;html=1;" vertex="1" parent="1">
          <mxGeometry x="100" y="894" width="115" height="40" as="geometry" />
        </mxCell>
        <mxCell id="n2hWyiWzyWa_PL9sFiAs-125" value="nombre_gnero_libro" style="ellipse;whiteSpace=wrap;html=1;" vertex="1" parent="1">
          <mxGeometry x="70" y="963.5" width="150" height="40" as="geometry" />
        </mxCell>
        <mxCell id="n2hWyiWzyWa_PL9sFiAs-152" value="&lt;font style=&quot;font-size: 9px;&quot;&gt;1&lt;/font&gt;" style="text;html=1;strokeColor=none;fillColor=none;align=center;verticalAlign=middle;whiteSpace=wrap;rounded=0;" vertex="1" parent="1">
          <mxGeometry x="90" y="647" width="25" height="15" as="geometry" />
        </mxCell>
        <mxCell id="n2hWyiWzyWa_PL9sFiAs-153" value="&lt;font style=&quot;font-size: 9px;&quot;&gt;N&lt;/font&gt;" style="text;html=1;strokeColor=none;fillColor=none;align=center;verticalAlign=middle;whiteSpace=wrap;rounded=0;" vertex="1" parent="1">
          <mxGeometry x="345.5" y="645" width="25" height="15" as="geometry" />
        </mxCell>
        <mxCell id="n2hWyiWzyWa_PL9sFiAs-154" value="&lt;font style=&quot;font-size: 9px;&quot;&gt;1&lt;/font&gt;" style="text;html=1;strokeColor=none;fillColor=none;align=center;verticalAlign=middle;whiteSpace=wrap;rounded=0;" vertex="1" parent="1">
          <mxGeometry x="503" y="645" width="25" height="15" as="geometry" />
        </mxCell>
        <mxCell id="n2hWyiWzyWa_PL9sFiAs-155" value="&lt;font style=&quot;font-size: 9px;&quot;&gt;N:M&lt;/font&gt;" style="text;html=1;strokeColor=none;fillColor=none;align=center;verticalAlign=middle;whiteSpace=wrap;rounded=0;" vertex="1" parent="1">
          <mxGeometry x="700" y="685" width="25" height="15" as="geometry" />
        </mxCell>
        <mxCell id="n2hWyiWzyWa_PL9sFiAs-157" value="&lt;font style=&quot;font-size: 9px;&quot;&gt;1&lt;/font&gt;" style="text;html=1;strokeColor=none;fillColor=none;align=center;verticalAlign=middle;whiteSpace=wrap;rounded=0;" vertex="1" parent="1">
          <mxGeometry x="712.5" y="856.5" width="25" height="15" as="geometry" />
        </mxCell>
        <mxCell id="n2hWyiWzyWa_PL9sFiAs-159" value="&lt;font style=&quot;font-size: 9px;&quot;&gt;N&lt;/font&gt;" style="text;html=1;strokeColor=none;fillColor=none;align=center;verticalAlign=middle;whiteSpace=wrap;rounded=0;" vertex="1" parent="1">
          <mxGeometry x="651.5" y="890" width="25" height="15" as="geometry" />
        </mxCell>
        <mxCell id="n2hWyiWzyWa_PL9sFiAs-162" value="&lt;font style=&quot;font-size: 9px;&quot;&gt;1&lt;/font&gt;" style="text;html=1;strokeColor=none;fillColor=none;align=center;verticalAlign=middle;whiteSpace=wrap;rounded=0;" vertex="1" parent="1">
          <mxGeometry x="355" y="894" width="25" height="15" as="geometry" />
        </mxCell>
        <mxCell id="n2hWyiWzyWa_PL9sFiAs-191" style="edgeStyle=orthogonalEdgeStyle;rounded=0;orthogonalLoop=1;jettySize=auto;html=1;entryX=0.522;entryY=0.4;entryDx=0;entryDy=0;entryPerimeter=0;" edge="1" parent="1" source="n2hWyiWzyWa_PL9sFiAs-22" target="n2hWyiWzyWa_PL9sFiAs-39">
          <mxGeometry relative="1" as="geometry" />
        </mxCell>
        <mxCell id="n2hWyiWzyWa_PL9sFiAs-39" value="nombre_cliente" style="ellipse;whiteSpace=wrap;html=1;" vertex="1" parent="1">
          <mxGeometry x="-160" y="612" width="90" height="50" as="geometry" />
        </mxCell>
        <mxCell id="n2hWyiWzyWa_PL9sFiAs-192" style="edgeStyle=orthogonalEdgeStyle;rounded=0;orthogonalLoop=1;jettySize=auto;html=1;entryX=0.522;entryY=0.6;entryDx=0;entryDy=0;entryPerimeter=0;" edge="1" parent="1" source="n2hWyiWzyWa_PL9sFiAs-22" target="n2hWyiWzyWa_PL9sFiAs-44">
          <mxGeometry relative="1" as="geometry" />
        </mxCell>
        <mxCell id="n2hWyiWzyWa_PL9sFiAs-193" style="edgeStyle=orthogonalEdgeStyle;rounded=0;orthogonalLoop=1;jettySize=auto;html=1;entryX=0.633;entryY=0.84;entryDx=0;entryDy=0;entryPerimeter=0;" edge="1" parent="1" source="n2hWyiWzyWa_PL9sFiAs-22" target="n2hWyiWzyWa_PL9sFiAs-43">
          <mxGeometry relative="1" as="geometry">
            <Array as="points">
              <mxPoint x="-10" y="762" />
              <mxPoint x="-103" y="762" />
            </Array>
          </mxGeometry>
        </mxCell>
        <mxCell id="n2hWyiWzyWa_PL9sFiAs-43" value="telefono" style="ellipse;whiteSpace=wrap;html=1;" vertex="1" parent="1">
          <mxGeometry x="-160" y="730" width="90" height="50" as="geometry" />
        </mxCell>
        <mxCell id="n2hWyiWzyWa_PL9sFiAs-44" value="email_cliente" style="ellipse;whiteSpace=wrap;html=1;" vertex="1" parent="1">
          <mxGeometry x="-160" y="672" width="90" height="50" as="geometry" />
        </mxCell>
      </root>
    </mxGraphModel>
  </diagram>
</mxfile>
